<?xml version="1.0" encoding="UTF-8"?>
<svg version="1.1" xmlns="http://www.w3.org/2000/svg" width="512" height="512">
<path d="M0 0 C12.65922039 12.83531465 17.7578245 28.2771565 18 46 C17.52100921 52.95068858 14.88234612 58.05031117 10 63 C4.14546027 67.6205618 -2.67162285 69.33512781 -10 68.875 C-17.00127811 67.91930406 -21.94192352 65.72523913 -26.375 60.125 C-31.1406577 53.05421439 -31.84534585 46.41010739 -31 38 C-29.25274642 30.8340486 -25.05581873 26.07104388 -19 22 C-12.87561474 19.04934419 -4.93006148 17.75431087 1.625 19.83203125 C3.8125 20.9375 3.8125 20.9375 7 23 C3.53573271 11.79207642 -4.06941106 3.09259497 -14.12890625 -2.84765625 C-29.30888259 -10.8362248 -44.06765831 -12.86841726 -61 -14 C-61.33 -13.34 -61.66 -12.68 -62 -12 C-63.134375 -12.226875 -64.26875 -12.45375 -65.4375 -12.6875 C-79.63568732 -14.23272859 -95.46437159 -8.88259172 -106.91015625 -0.70703125 C-119.29937751 9.41276256 -124.62126617 23.97532422 -126.6875 39.5 C-128.42606964 59.67465183 -125.0245799 79.61732897 -111.86328125 95.59375 C-109.62619428 98.11569525 -107.331376 100.56528287 -105 103 C-104.45859375 103.60457031 -103.9171875 104.20914063 -103.359375 104.83203125 C-94.51010281 114.3740495 -82.45762349 121.15861228 -71.32177734 127.7043457 C-68.7103805 129.24012314 -66.10823426 130.79128895 -63.50540161 132.34152222 C-62.19398487 133.12252099 -60.8822008 133.9029033 -59.57003784 134.68264771 C9.93201553 175.99244346 9.93201553 175.99244346 19.75 213.1875 C25.54973051 236.75733503 23.49375619 263.51944677 12 285 C0.89871342 302.44787117 -15.28587296 312.55120963 -35.13476562 317.53613281 C-45.46903974 319.82369211 -55.90935421 321.12706327 -66.48828125 321.23828125 C-67.65382286 321.25304001 -67.65382286 321.25304001 -68.84291077 321.26809692 C-97.96153649 321.56131975 -124.11856196 319.60979708 -146.625 298.9375 C-160.36000956 284.64336616 -164.64923727 266.13537408 -164.34765625 246.890625 C-164.01822108 239.64029452 -161.64787056 234.71755136 -156.625 229.5625 C-155.325625 228.7890625 -155.325625 228.7890625 -154 228 C-153.030625 227.4225 -152.06125 226.845 -151.0625 226.25 C-144.52602974 223.69535333 -136.66705848 223.74819289 -130.08203125 225.99609375 C-123.62648449 229.44360964 -119.61308058 234.17909114 -117 241 C-115.0669573 249.32526344 -115.67614637 257.37128436 -120.0703125 264.8125 C-123.48431546 269.33435823 -127.97170075 272.01784889 -133.3125 273.75 C-141.03930683 274.46877273 -147.84827216 274.36007903 -155 271 C-155.66 270.34 -156.32 269.68 -157 269 C-151.28009315 285.81705333 -142.5909128 297.5884083 -126.82958984 306.09960938 C-104.82699858 316.92767938 -75.06955788 318.48887372 -51.875 311.25 C-46.52642285 309.34748598 -41.51894073 306.90435802 -36.49609375 304.26953125 C-34 303 -34 303 -31 302 C-31 301.34 -31 300.68 -31 300 C-30.154375 299.360625 -29.30875 298.72125 -28.4375 298.0625 C-17.26528086 288.99824673 -12.70631025 272.91882534 -11.21875 259.1875 C-9.84867222 238.47514773 -13.0965098 219.89444799 -26.58984375 203.6015625 C-39.71172266 189.43758947 -56.72275847 180.07579061 -73.30126953 170.60522461 C-82.42319677 165.37902422 -91.30387047 159.90535792 -100 154 C-100.70415039 153.52498047 -101.40830078 153.04996094 -102.13378906 152.56054688 C-140.62257152 126.46587436 -140.62257152 126.46587436 -147 112 C-147.32306687 106.6192656 -146.78041404 101.8055361 -145.75 96.5 C-145.61650146 95.81204346 -145.48300293 95.12408691 -145.34545898 94.4152832 C-144.13484311 88.33869672 -142.62011261 82.35444417 -141.07641602 76.35546875 C-140.03969297 72.23398517 -139.14536717 68.08803391 -138.2890625 63.92578125 C-135.65977352 51.30161917 -132.92762868 38.6996456 -130.19897461 26.09667969 C-129.45106831 22.64179908 -128.70524973 19.186471 -127.95985126 15.73104858 C-127.24161399 12.40371772 -126.52104128 9.07689359 -125.80078125 5.75 C-125.53413162 4.51266113 -125.26748199 3.27532227 -124.99275208 2.00048828 C-124.7454686 0.8607959 -124.49818512 -0.27889648 -124.2434082 -1.453125 C-124.02675003 -2.45504883 -123.81009186 -3.45697266 -123.58686829 -4.48925781 C-123 -7 -123 -7 -122 -10 C-119.24222401 -11.15609823 -116.59484885 -12.1145476 -113.75 -13 C-112.92733643 -13.26127686 -112.10467285 -13.52255371 -111.25708008 -13.79174805 C-108.84323543 -14.54629521 -106.42350389 -15.27716407 -104 -16 C-102.89527344 -16.33644531 -101.79054688 -16.67289063 -100.65234375 -17.01953125 C-68.78692521 -25.54216625 -25.22434831 -22.91119846 0 0 Z " fill="#5C17E9" transform="translate(400,156)"/>
<path d="M0 0 C33 0 66 0 100 0 C100 1.65 100 3.3 100 5 C97.03042485 6.48478758 94.17976133 6.23702786 90.875 6.375 C83.35569126 6.80801647 77.77711703 7.34362719 72.125 12.75 C65.22254505 23.3066958 67.45235546 37.13746407 69.56640625 48.92578125 C69.74004196 49.90621902 69.91367767 50.8866568 70.09257507 51.89680481 C72.64377421 65.94155962 75.74643165 79.87728398 78.79548645 93.82038498 C79.49675222 97.03108758 80.19431429 100.24259045 80.8918972 103.45409489 C86.57548072 129.61777087 92.33204168 155.76563537 98.1262207 181.9050293 C100.70796446 193.55682922 103.28023417 205.20875483 105.71209717 216.89292908 C106.79911148 222.10026373 107.97847223 227.28138139 109.19140625 232.4609375 C111.26711092 241.54590576 113.15441845 250.6741055 115.09326172 259.7890625 C117.03640428 268.91813591 118.98128017 278.04223546 121.11560059 287.12890625 C122.31573631 292.3820055 123.45472963 297.64784294 124.59570312 302.9140625 C124.82727112 303.98116455 125.05883911 305.0482666 125.29742432 306.14770508 C125.86534591 308.76505102 126.43285973 311.38248467 127 314 C127.2384967 312.9061499 127.47699341 311.8122998 127.72271729 310.68530273 C130.1075388 299.74775728 132.49286777 288.81032258 134.87854576 277.87296391 C136.19969877 271.81590749 137.52066565 265.75881059 138.84124756 259.70162964 C140.500464 252.09134807 142.16011215 244.48116074 143.8203125 236.87109375 C143.96288215 236.21757581 144.1054518 235.56405786 144.25234175 234.89073634 C148.54845804 215.1991153 152.85921412 195.51074172 157.18150949 175.82485092 C158.29499624 170.75334356 159.40784014 165.6816955 160.52026367 160.60995483 C160.67660137 159.89720355 160.83293906 159.18445226 160.99401426 158.45010245 C161.62221841 155.58605157 162.25040982 152.72199791 162.87852955 149.85792851 C164.56596222 142.16380085 166.25475626 134.46997802 167.94787598 126.77709961 C185.96669811 69.95247578 185.96669811 69.95247578 183 14 C177.27447844 7.46378512 169.77840262 6.66823375 161.625 5.875 C160.79355469 5.78863281 159.96210938 5.70226563 159.10546875 5.61328125 C157.07092853 5.40281157 155.0355403 5.20056686 153 5 C153 3.35 153 1.7 153 0 C175.77 0 198.54 0 222 0 C222 1.65 222 3.3 222 5 C219.74441262 6.12779369 218.25349168 6.16348264 215.75 6.3125 C210.53017157 6.88132746 207.19590691 8.44140576 203.69921875 12.515625 C195.58544034 24.07085122 193.36115811 40.24223875 190.375 53.7734375 C189.94514478 55.69488155 189.51479321 57.61621461 189.08398438 59.53744507 C187.70870227 65.6885752 186.35191429 71.84369668 185 78 C184.77380981 79.02960342 184.54761963 80.05920685 184.3145752 81.12001038 C181.07603521 95.87437763 177.87961215 110.63775494 174.69512939 125.40386963 C173.75178996 129.77516987 172.80607426 134.14595463 171.86032104 138.51673317 C170.93824862 142.77862779 170.0170583 147.04071264 169.09619141 151.30286789 C168.6625802 153.3097988 168.22882743 155.31669914 167.79492188 157.32356644 C167.19449939 160.10176668 166.59513434 162.88019291 165.99609375 165.65869141 C165.82262924 166.46063431 165.64916473 167.26257721 165.47044373 168.08882141 C164.41631199 172.98482211 163.41205212 177.8889424 162.44018555 182.80194569 C161.85332853 185.73239991 161.21398064 188.64969612 160.5625 191.56640625 C160.30726563 192.71173828 160.05203125 193.85707031 159.7890625 195.03710938 C159.52867187 196.20048828 159.26828125 197.36386719 159 198.5625 C158.73960937 199.72974609 158.47921875 200.89699219 158.2109375 202.09960938 C157.72315674 204.28600039 157.23493606 206.47229335 156.74609375 208.65844727 C156.37677734 210.31251587 156.37677734 210.31251587 156 212 C155.86053955 212.62176117 155.7210791 213.24352234 155.57739258 213.88412476 C154.10183396 220.48651832 152.67898058 227.10012372 151.25692749 233.71421814 C150.80283906 235.82618303 150.34836508 237.93806466 149.89379883 240.04992676 C148.92886603 244.53321285 147.96439736 249.01659871 147 253.5 C145.88110709 258.70163799 144.76201609 263.90323319 143.64242554 269.10472107 C143.19797721 271.17006262 142.75388736 273.23548103 142.30981445 275.30090332 C140.89546676 281.87239486 139.46873559 288.44045743 138 295 C137.67928135 296.44208456 137.3588103 297.88422421 137.03857422 299.32641602 C134.69238281 309.88427734 132.34619141 320.44213867 130 331 C117.46 331 104.92 331 92 331 C87.40565588 312.62262354 87.40565588 312.62262354 85.48901367 303.63012695 C85.26836463 302.60574052 85.04771559 301.58135408 84.82038021 300.52592564 C84.10042247 297.18057327 83.38418936 293.83443551 82.66796875 290.48828125 C82.15453768 288.09940283 81.64084963 285.71057963 81.12692261 283.32180786 C80.04051434 278.26993675 78.95566268 273.21773508 77.87210083 268.16525269 C76.17135144 260.23529969 74.4669046 252.30614479 72.76147461 244.37719727 C72.62003482 243.71958668 72.47859502 243.0619761 72.33286917 242.38443792 C71.76352806 239.73734959 71.1941798 237.0902628 70.62479073 234.44318479 C69.77663746 230.50007593 68.92874631 226.55691082 68.0810712 222.61369914 C63.76773284 202.54923601 59.43155244 182.48990056 55.0625 162.4375 C54.77815461 161.13226382 54.49381216 159.82702701 54.20947266 158.52178955 C53.92894043 157.23407654 53.6484082 155.94636353 53.359375 154.61962891 C52.93199911 152.65782008 52.50462974 150.69600983 52.07727814 148.73419571 C51.79232923 147.42615252 51.50735119 146.11811567 51.22234344 144.8100853 C48.73748521 133.40494268 46.26496133 121.99714491 43.79546547 110.58866692 C43.1671732 107.68624502 42.53871535 104.78385902 41.91020203 101.88148499 C41.49343722 99.95687899 41.07667391 98.03227266 40.65991211 96.10766602 C40.45416911 95.15755425 40.24842611 94.20744249 40.03644848 93.22853947 C38.82059314 87.61319993 37.60583062 81.99762533 36.39183426 76.38188362 C35.64099976 72.90993275 34.8891154 69.43820983 34.13695908 65.9665451 C33.78707409 64.35051026 33.43763847 62.73437805 33.0886879 61.11814117 C32.60742262 58.88929487 32.12456999 56.66079786 31.64135742 54.43237305 C31.37127365 53.18376999 31.10118988 51.93516693 30.82292175 50.64872742 C30.2233635 47.99036456 29.58519349 45.36042539 28.90522766 42.72297668 C28.14657375 39.60282146 27.80157272 37.17483641 28 34 C27.34 33.67 26.68 33.34 26 33 C25.64377289 31.00395056 25.31514883 29.00294591 25 27 C24.24083654 24.77276782 23.42623154 22.56380337 22.5625 20.375 C22.13066406 19.26898438 21.69882813 18.16296875 21.25390625 17.0234375 C19.57191005 12.34481428 19.57191005 12.34481428 16.3125 8.875 C11.07944842 6.89492643 6.60043597 5.86665629 1 6 C0.67 5.67 0.34 5.34 0 5 C0 3.35 0 1.7 0 0 Z " fill="#5C17E8" transform="translate(84,33)"/>
<path d="M0 0 C22.77 0 45.54 0 69 0 C69 1.65 69 3.3 69 5 C66.74441262 6.12779369 65.25349168 6.16348264 62.75 6.3125 C57.53017157 6.88132746 54.19590691 8.44140576 50.69921875 12.515625 C42.58544034 24.07085122 40.36115811 40.24223875 37.375 53.7734375 C36.94514478 55.69488155 36.51479321 57.61621461 36.08398438 59.53744507 C34.70870227 65.6885752 33.35191429 71.84369668 32 78 C31.77380981 79.02960342 31.54761963 80.05920685 31.3145752 81.12001038 C28.07603521 95.87437763 24.87961215 110.63775494 21.69512939 125.40386963 C20.75178996 129.77516987 19.80607426 134.14595463 18.86032104 138.51673317 C17.93824862 142.77862779 17.0170583 147.04071264 16.09619141 151.30286789 C15.6625802 153.3097988 15.22882743 155.31669914 14.79492188 157.32356644 C14.19449939 160.10176668 13.59513434 162.88019291 12.99609375 165.65869141 C12.82262924 166.46063431 12.64916473 167.26257721 12.47044373 168.08882141 C11.41631199 172.98482211 10.41205212 177.8889424 9.44018555 182.80194569 C8.85332853 185.73239991 8.21398064 188.64969612 7.5625 191.56640625 C7.30726563 192.71173828 7.05203125 193.85707031 6.7890625 195.03710938 C6.52867187 196.20048828 6.26828125 197.36386719 6 198.5625 C5.73960937 199.72974609 5.47921875 200.89699219 5.2109375 202.09960938 C4.72315674 204.28600039 4.23493606 206.47229335 3.74609375 208.65844727 C3.49988281 209.76115967 3.25367188 210.86387207 3 212 C2.86053955 212.62176117 2.7210791 213.24352234 2.57739258 213.88412476 C1.10183396 220.48651832 -0.32101942 227.10012372 -1.74307251 233.71421814 C-2.19716094 235.82618303 -2.65163492 237.93806466 -3.10620117 240.04992676 C-4.07113397 244.53321285 -5.03560264 249.01659871 -6 253.5 C-7.11889291 258.70163799 -8.23798391 263.90323319 -9.35757446 269.10472107 C-9.80202279 271.17006262 -10.24611264 273.23548103 -10.69018555 275.30090332 C-12.10453324 281.87239486 -13.53126441 288.44045743 -15 295 C-15.32071865 296.44208456 -15.6411897 297.88422421 -15.96142578 299.32641602 C-19.48071289 315.16320801 -19.48071289 315.16320801 -23 331 C-35.54 331 -48.08 331 -61 331 C-61 330.34 -61 329.68 -61 329 C-49.45 328.67 -37.9 328.34 -26 328 C-23.10747322 322.74389576 -23.10747322 322.74389576 -22.8125 317.625 C-22.9053125 315.830625 -22.9053125 315.830625 -23 314 C-23.66 315.98 -24.32 317.96 -25 320 C-26.5 318.9375 -26.5 318.9375 -28 317 C-28.1875 313.3125 -28.1875 313.3125 -28 310 C-27.01 311.98 -27.01 311.98 -26 314 C-25.7615033 312.9061499 -25.52300659 311.8122998 -25.27728271 310.68530273 C-22.8924612 299.74775728 -20.50713223 288.81032258 -18.12145424 277.87296391 C-16.80030123 271.81590749 -15.47933435 265.75881059 -14.15875244 259.70162964 C-12.499536 252.09134807 -10.83988785 244.48116074 -9.1796875 236.87109375 C-9.03711785 236.21757581 -8.8945482 235.56405786 -8.74765825 234.89073634 C-4.45154196 215.1991153 -0.14078588 195.51074172 4.18150949 175.82485092 C5.29499624 170.75334356 6.40784014 165.6816955 7.52026367 160.60995483 C7.67660137 159.89720355 7.83293906 159.18445226 7.99401426 158.45010245 C8.62221841 155.58605157 9.25040982 152.72199791 9.87852955 149.85792851 C11.56596222 142.16380085 13.25475626 134.46997802 14.94787598 126.77709961 C32.96669811 69.95247578 32.96669811 69.95247578 30 14 C24.27447844 7.46378512 16.77840262 6.66823375 8.625 5.875 C7.37783203 5.74544922 7.37783203 5.74544922 6.10546875 5.61328125 C4.07092853 5.40281157 2.0355403 5.20056686 0 5 C0 3.35 0 1.7 0 0 Z " fill="#551FCC" transform="translate(237,33)"/>
<path d="M0 0 C5.79572797 6.03427166 11.37923488 12.92683847 14 21 C13.67 21.99 13.34 22.98 13 24 C12.34 23.67 11.68 23.34 11 23 C11 23.99 11 24.98 11 26 C10.34 26 9.68 26 9 26 C8.59910156 25.10539062 8.19820312 24.21078125 7.78515625 23.2890625 C0.12573631 6.7616854 -10.6277145 -2.57804364 -27.76171875 -8.95703125 C-35.37814586 -11.4100904 -42.54410122 -12.48811046 -50.5 -13.125 C-51.51320313 -13.21136719 -52.52640625 -13.29773438 -53.5703125 -13.38671875 C-56.04644858 -13.59695672 -58.52292026 -13.80124567 -61 -14 C-61.33 -13.34 -61.66 -12.68 -62 -12 C-63.134375 -12.226875 -64.26875 -12.45375 -65.4375 -12.6875 C-79.63568732 -14.23272859 -95.46437159 -8.88259172 -106.91015625 -0.70703125 C-119.29937751 9.41276256 -124.62126617 23.97532422 -126.6875 39.5 C-127.63424919 50.5256833 -126.54926194 61.09983564 -125 72 C-125.66 71.67 -126.32 71.34 -127 71 C-130.00140464 60.8579987 -129.60588779 49.49583047 -130 39 C-131.32 43.29 -132.64 47.58 -134 52 C-135.01079574 47.95681704 -134.89884237 46.47822551 -134.02783203 42.54467773 C-133.79073517 41.45352158 -133.55363831 40.36236542 -133.30935669 39.23814392 C-133.04484711 38.06514236 -132.78033752 36.89214081 -132.5078125 35.68359375 C-132.24241669 34.47558609 -131.97702087 33.26757843 -131.70358276 32.02296448 C-130.99691366 28.81526079 -130.28236323 25.60944444 -129.56420898 22.40429688 C-128.83619138 19.14420247 -128.12011732 15.88150554 -127.40234375 12.61914062 C-126.3496867 7.85373577 -125.29640657 3.08849027 -124.23095703 -1.67407227 C-123.90999557 -3.11158592 -123.90999557 -3.11158592 -123.58255005 -4.57814026 C-123 -7 -123 -7 -122 -10 C-119.24222401 -11.15609823 -116.59484885 -12.1145476 -113.75 -13 C-112.92733643 -13.26127686 -112.10467285 -13.52255371 -111.25708008 -13.79174805 C-108.84323543 -14.54629521 -106.42350389 -15.27716407 -104 -16 C-102.89527344 -16.33644531 -101.79054688 -16.67289063 -100.65234375 -17.01953125 C-68.82823284 -25.53111823 -25.17222283 -22.94038331 0 0 Z " fill="#581CD7" transform="translate(400,156)"/>
<path d="M0 0 C22.77 0 45.54 0 69 0 C69 1.65 69 3.3 69 5 C66.74441262 6.12779369 65.25349168 6.16348264 62.75 6.3125 C57.53017157 6.88132746 54.19590691 8.44140576 50.69921875 12.515625 C47.17546548 17.5339733 45.48546365 23.12709506 43.87475586 28.98364258 C43.30859375 30.90234375 43.30859375 30.90234375 42 34 C39.84765625 34.94140625 39.84765625 34.94140625 38 35 C38.01160156 35.63808594 38.02320313 36.27617188 38.03515625 36.93359375 C38.04417969 37.75988281 38.05320312 38.58617187 38.0625 39.4375 C38.07410156 40.26121094 38.08570313 41.08492187 38.09765625 41.93359375 C38 44 38 44 37 45 C36.50223184 48.03186062 36.09896411 51.07145266 35.6953125 54.1171875 C34.9534736 57.19290159 34.26170774 57.95058799 32 60 C32.03029297 59.41734375 32.06058594 58.8346875 32.09179688 58.234375 C35.25644737 34.18971339 35.25644737 34.18971339 28.67578125 12.48828125 C22.91065033 7.2073608 16.04820887 6.59719416 8.625 5.875 C7.79355469 5.78863281 6.96210938 5.70226563 6.10546875 5.61328125 C4.07092853 5.40281157 2.0355403 5.20056686 0 5 C0 3.35 0 1.7 0 0 Z " fill="#5C17E9" transform="translate(237,33)"/>
<path d="M0 0 C0.33 0 0.66 0 1 0 C1.06058594 1.19238281 1.12117187 2.38476562 1.18359375 3.61328125 C1.26801149 5.17969925 1.35265887 6.74610488 1.4375 8.3125 C1.47681641 9.09818359 1.51613281 9.88386719 1.55664062 10.69335938 C1.59853516 11.45068359 1.64042969 12.20800781 1.68359375 12.98828125 C1.73858032 14.03302612 1.73858032 14.03302612 1.79467773 15.09887695 C1.95581153 17.2216572 1.95581153 17.2216572 3 20 C3.06740865 21.56118428 3.08514456 23.1250252 3.0625 24.6875 C3.05347656 25.49574219 3.04445312 26.30398438 3.03515625 27.13671875 C3.02355469 27.75160156 3.01195312 28.36648438 3 29 C4.32 28.34 5.64 27.68 7 27 C7.27972656 27.82242187 7.55945313 28.64484375 7.84765625 29.4921875 C13.71689222 45.83546192 23.30965423 57.27835666 39 65 C62.16476514 74.85531599 91.24909356 76.64763665 115.03515625 68.21875 C119.32603466 66.45491065 123.41770505 64.36420605 127.50390625 62.171875 C130 61 130 61 133 61 C132.67 61.99 132.34 62.98 132 64 C131.01 63.67 130.02 63.34 129 63 C129 63.66 129 64.32 129 65 C128.175 65.804375 127.35 66.60875 126.5 67.4375 C123.65083807 69.76122416 123.65083807 69.76122416 124 73 C126.64 72.67 129.28 72.34 132 72 C132 71.67 132 71.34 132 71 C134.64 71 137.28 71 140 71 C136.67721472 73.21519019 133.56446333 74.06105518 129.75 75 C129.12609375 75.165 128.5021875 75.33 127.859375 75.5 C114.48485278 78.84363056 101.01844634 79.41023773 87.3125 79.375 C86.47716736 79.37412384 85.64183472 79.37324768 84.78118896 79.37234497 C59.29140482 79.28422626 36.7307423 74.71586432 17.375 56.9375 C4.96245292 44.01966339 -0.22543135 27.19651965 -0.0625 9.625 C-0.05798828 8.69816406 -0.05347656 7.77132813 -0.04882812 6.81640625 C-0.03711574 4.54420291 -0.02071372 2.27213612 0 0 Z " fill="#5620CB" transform="translate(236,398)"/>
<path d="M0 0 C33 0 66 0 100 0 C100 1.65 100 3.3 100 5 C97.03133451 6.48433275 94.17815045 6.27661096 90.875 6.4375 C85.35997889 6.74231733 80.28960528 7.38073308 75 9 C75.66 8.01 76.32 7.02 77 6 C77 5.01 77 4.02 77 3 C56.21 3 35.42 3 14 3 C14.33 3.99 14.66 4.98 15 6 C17.31 6.33 19.62 6.66 22 7 C21.9071875 8.299375 21.9071875 8.299375 21.8125 9.625 C22.02608901 13.46960222 23.26675953 15.6057374 25 19 C25.1875 21.875 25.1875 21.875 25 24 C23.44895107 21.67342661 22.17663299 19.48768904 20.9375 17 C20.59589844 16.319375 20.25429687 15.63875 19.90234375 14.9375 C19 13 19 13 18 10 C12.87962353 6.65206154 6.98319926 5.85754287 1 6 C0.67 5.67 0.34 5.34 0 5 C0 3.35 0 1.7 0 0 Z " fill="#5521C3" transform="translate(84,33)"/>
<path d="M0 0 C22.77 0 45.54 0 69 0 C69 1.65 69 3.3 69 5 C66.74441262 6.12779369 65.25349168 6.16348264 62.75 6.3125 C58.18558671 6.80990401 55.50938762 7.88940643 52 11 C50.14275795 13.56967618 48.5241708 16.22142315 47 19 C46 16 46 16 46.9375 14 C47.4634375 13.01 47.4634375 13.01 48 12 C48 11.01 48 10.02 48 9 C47.34 9 46.68 9 46 9 C46.8125 7.0625 46.8125 7.0625 48 5 C48.99 4.67 49.98 4.34 51 4 C51 3.34 51 2.68 51 2 C34.83 2 18.66 2 2 2 C2 2.66 2 3.32 2 4 C3.55847656 3.93039063 3.55847656 3.93039063 5.1484375 3.859375 C21.77595295 3.33864287 21.77595295 3.33864287 28 8 C29.2578125 10.64453125 29.2578125 10.64453125 30 13 C29.13375 12.38125 28.2675 11.7625 27.375 11.125 C21.3683535 7.34303739 15.54299968 6.54804303 8.625 5.875 C7.79355469 5.78863281 6.96210938 5.70226563 6.10546875 5.61328125 C4.07092853 5.40281157 2.0355403 5.20056686 0 5 C0 3.35 0 1.7 0 0 Z " fill="#571DD5" transform="translate(237,33)"/>
<path d="M0 0 C6.53993695 0.76980899 12.89601605 1.25631069 19.4921875 1.03515625 C21.9375 1.0625 21.9375 1.0625 24.34375 1.55078125 C27.45980795 2.1655457 30.38803437 2.19479762 33.5625 2.1875 C34.68914062 2.19007813 35.81578125 2.19265625 36.9765625 2.1953125 C39.99538082 2.19509517 39.99538082 2.19509517 42.9375 1.0625 C42.9375 2.3825 42.9375 3.7025 42.9375 5.0625 C36.10566404 5.11339944 29.27387738 5.14831716 22.44189453 5.17236328 C20.11993584 5.18239264 17.79798968 5.1960194 15.47607422 5.21337891 C12.12985123 5.23776201 8.78379592 5.24901404 5.4375 5.2578125 C4.4069751 5.26813507 3.3764502 5.27845764 2.31469727 5.28909302 C-3.50561844 5.28998981 -8.48291926 4.74218629 -14.0625 3.0625 C-14.0625 2.0725 -14.0625 1.0825 -14.0625 0.0625 C-9.23094297 -1.33328314 -4.89364354 -0.62123883 0 0 Z " fill="#5016E5" transform="translate(303.0625,469.9375)"/>
<path d="M0 0 C0.33 0 0.66 0 1 0 C1.41551776 5.95575456 0.13449977 11.15162591 -1.34375 16.9140625 C-1.94226746 19.72851961 -2.12769872 22.13742028 -2 25 C-1.01 24.01 -0.02 23.02 1 22 C0.87882812 22.55945313 0.75765625 23.11890625 0.6328125 23.6953125 C-2.99223536 41.03977225 -3.47921179 56.55697417 -1 74 C-1.66 73.67 -2.32 73.34 -3 73 C-6.00140464 62.8579987 -5.60588779 51.49583047 -6 41 C-7.32 45.29 -8.64 49.58 -10 54 C-10.98436677 50.06253292 -10.95533604 48.7450907 -10.10375977 44.95605469 C-9.88345596 43.95531921 -9.66315216 42.95458374 -9.43617249 41.92352295 C-9.0675132 40.31395721 -9.0675132 40.31395721 -8.69140625 38.671875 C-8.44583481 37.56773254 -8.20026337 36.46359009 -7.94725037 35.32598877 C-7.1607252 31.79872029 -6.3617764 28.27439861 -5.5625 24.75 C-5.02717442 22.35955857 -4.49265913 19.96893552 -3.95898438 17.578125 C-2.64871909 11.71660992 -1.32824191 5.8574661 0 0 Z " fill="#5423C3" transform="translate(276,154)"/>
<path d="M0 0 C22.77 0 45.54 0 69 0 C69 1.65 69 3.3 69 5 C66.59454362 6.20272819 65.05003047 6.10071472 62.375 6.0625 C61.14910156 6.04896484 61.14910156 6.04896484 59.8984375 6.03515625 C59.27195312 6.02355469 58.64546875 6.01195312 58 6 C58.33 5.34 58.66 4.68 59 4 C61.97 4 64.94 4 68 4 C68 3.01 68 2.02 68 1 C45.89 1 23.78 1 1 1 C1 1.99 1 2.98 1 4 C2.66675781 3.93039063 2.66675781 3.93039063 4.3671875 3.859375 C21.90421931 3.34479768 21.90421931 3.34479768 28 8 C29.25390625 10.64453125 29.25390625 10.64453125 30 13 C29.13375 12.38125 28.2675 11.7625 27.375 11.125 C21.3683535 7.34303739 15.54299968 6.54804303 8.625 5.875 C7.79355469 5.78863281 6.96210938 5.70226563 6.10546875 5.61328125 C4.07092853 5.40281157 2.0355403 5.20056686 0 5 C0 3.35 0 1.7 0 0 Z " fill="#5328AE" transform="translate(237,33)"/>
<path d="M0 0 C2.81256281 -0.02684312 5.62487241 -0.04676188 8.4375 -0.0625 C9.23994141 -0.07087891 10.04238281 -0.07925781 10.86914062 -0.08789062 C12.91295221 -0.0965143 14.95683902 -0.0522815 17 0 C17.33 0.33 17.66 0.66 18 1 C21.06886617 1.28474016 24.13775297 1.44871799 27.21484375 1.62109375 C30 2 30 2 32 4 C26.64333324 4.16762152 21.28651915 4.32818051 15.92944336 4.48217773 C14.10679417 4.53557027 12.28420059 4.5908975 10.46166992 4.64819336 C7.84305818 4.73018093 5.22432573 4.80522482 2.60546875 4.87890625 C1.78974899 4.90594131 0.97402924 4.93297638 0.1335907 4.96083069 C-3.19854745 5.04887557 -5.81137578 5.06287474 -9 4 C-9 3.34 -9 2.68 -9 2 C-6.03 2 -3.06 2 0 2 C0 1.34 0 0.68 0 0 Z " fill="#5B19E5" transform="translate(331,137)"/>
<path d="M0 0 C8.7929395 13.18940925 6.78973128 37.71763092 4.16796875 52.4765625 C2.94613363 58.17140729 1.25811261 63.6293538 -1 69 C-1.33 69 -1.66 69 -2 69 C-2.15187543 65.8106159 -2.12065205 63.34586921 -1.0625 60.3125 C0.44450582 55.61418774 0.66842943 50.90375425 1 46 C1.66 46 2.32 46 3 46 C3.14420386 33.63051353 2.71511973 21.34858538 2 9 C1.34 9 0.68 9 0 9 C0 6.03 0 3.06 0 0 Z " fill="#4B20BF" transform="translate(417,363)"/>
<path d="M0 0 C0.66 0.33 1.32 0.66 2 1 C2.0496011 5.32330779 2.0858144 9.64646285 2.10986328 13.9699707 C2.11989352 15.43940112 2.13352101 16.90881171 2.15087891 18.37817383 C2.17525898 20.49565537 2.18651286 22.61287199 2.1953125 24.73046875 C2.20578613 26.00301514 2.21625977 27.27556152 2.22705078 28.58666992 C2.00696133 31.89534798 1.33803885 34.00895662 0 37 C-0.185625 38.7015625 -0.185625 38.7015625 -0.375 40.4375 C-1.08973725 44.51150233 -2.4223416 46.79745472 -5 50 C-5.66 50 -6.32 50 -7 50 C-6.566875 48.7625 -6.13375 47.525 -5.6875 46.25 C-0.51951992 30.64808856 0.15037615 16.2740413 0 0 Z " fill="#5525C1" transform="translate(389,392)"/>
<path d="M0 0 C0.33 0 0.66 0 1 0 C0.67 3.96 0.34 7.92 0 12 C2.51083114 10.74458443 2.87125446 9.49936512 4 7 C3.31137469 15.0107172 1.66689417 22.71803223 -0.0625 30.5625 C-0.347422 31.87035198 -0.63193031 33.17829415 -0.91601562 34.48632812 C-1.60662738 37.6584601 -2.30138811 40.8296221 -3 44 C-3.33 44 -3.66 44 -4 44 C-3.37802877 37.66118686 -2.71457113 31.32905858 -2 25 C-1.34 25 -0.68 25 0 25 C-0.33 22.36 -0.66 19.72 -1 17 C-1.66 18.98 -2.32 20.96 -3 23 C-3.33 23 -3.66 23 -4 23 C-3.32545897 15.1753241 -1.73123042 7.65443386 0 0 Z " fill="#5321C4" transform="translate(263,109)"/>
<path d="M0 0 C0.66 0 1.32 0 2 0 C2.41467342 8.01701946 0.85939879 15.21930149 -1 23 C-3.475 22.01 -3.475 22.01 -6 21 C-3.10933941 6.21867882 -3.10933941 6.21867882 0 0 Z " fill="#581CD4" transform="translate(249,180)"/>
<path d="M0 0 C0.99 0 1.98 0 3 0 C2.96519531 1.29550781 2.93039063 2.59101562 2.89453125 3.92578125 C2.70934134 14.16552302 3.09182181 23.88002815 5.02075195 33.95629883 C5.7194219 37.66861651 6.09790053 40.38359281 5 44 C-0.25708615 30.05119808 -0.36099686 14.7206497 0 0 Z " fill="#4E1CCB" transform="translate(149,51)"/>
<path d="M0 0 C2.25621163 1.08632412 4.37353544 2.23345965 6.5 3.5625 C8.7421556 4.85173947 10.48078813 5.53347928 13 6 C13 6.99 13 7.98 13 9 C17.29 9 21.58 9 26 9 C26 8.34 26 7.68 26 7 C27.98 7 29.96 7 32 7 C32 6.34 32 5.68 32 5 C33.98 4.34 35.96 3.68 38 3 C33.71062141 8.47265544 28.77670957 9.97074169 22 11 C15.35795692 11.24419276 9.48315271 9.8280997 4 6 C0 1.7 0 1.7 0 0 Z " fill="#5225BA" transform="translate(373,214)"/>
<path d="M0 0 C0.33 0 0.66 0 1 0 C1.02721176 1.89575251 1.04649136 3.79161979 1.0625 5.6875 C1.07410156 6.74324219 1.08570313 7.79898438 1.09765625 8.88671875 C1.00865425 11.72410262 0.64939838 14.2438919 0 17 C-0.66 17 -1.32 17 -2 17 C-2.33 18.65 -2.66 20.3 -3 22 C-3.66 22 -4.32 22 -5 22 C-4.74809356 13.85082664 -3.99450062 7.19010111 0 0 Z " fill="#581DD6" transform="translate(268,99)"/>
<path d="M0 0 C1.91543163 3.37756166 2.70702541 6.65777702 3.5078125 10.4453125 C3.77207031 11.68667969 4.03632813 12.92804688 4.30859375 14.20703125 C4.44249512 14.84979004 4.57639648 15.49254883 4.71435547 16.15478516 C5.12533536 18.12660899 5.54438603 20.09658389 5.96484375 22.06640625 C8 31.70081589 8 31.70081589 8 34 C7.34 34 6.68 34 6 34 C3.70387244 24.58997722 3.70387244 24.58997722 4 20 C2.68 20 1.36 20 0 20 C-0.33 20 -0.66 20 -1 20 C-1.12618297 15.45741325 -1.12618297 15.45741325 -0.5 13.1875 C0.11607771 10.49216002 0.09538162 8.0120564 0.0625 5.25 C0.05347656 4.26515625 0.04445312 3.2803125 0.03515625 2.265625 C0.02355469 1.51796875 0.01195312 0.7703125 0 0 Z " fill="#551CCF" transform="translate(195,279)"/>
<path d="M0 0 C1.47541605 2.73144081 2.38853287 5.19053533 3 8.23046875 C3.165 9.03419922 3.33 9.83792969 3.5 10.66601562 C3.665 11.49810547 3.83 12.33019531 4 13.1875 C4.3328256 14.82692608 4.66615741 16.46624947 5 18.10546875 C5.16242188 18.91419434 5.32484375 19.72291992 5.4921875 20.55615234 C6.14816106 23.71302511 6.88252673 26.8499062 7.6328125 29.9855957 C8 32 8 32 8 36 C7.34 36 6.68 36 6 36 C5.9175 34.96875 5.835 33.9375 5.75 32.875 C5.25695813 28.93051941 5.25695813 28.93051941 2.875 25.9375 C0.52326331 22.25311252 1.16751847 21.16240764 2 17 C1.52029557 15.04920197 1.03679621 13.09831303 0.48046875 11.16796875 C-0.33956375 7.46782208 -0.15700689 3.76816545 0 0 Z " fill="#501ECE" transform="translate(185,233)"/>
<path d="M0 0 C2.2454657 4.19294933 3.16642951 8.38490883 4.1875 13 C4.37763672 13.80695313 4.56777344 14.61390625 4.76367188 15.4453125 C4.93833984 16.22648437 5.11300781 17.00765625 5.29296875 17.8125 C5.53309692 18.87404297 5.53309692 18.87404297 5.77807617 19.95703125 C6.02416167 22.22242559 5.67656334 23.83888247 5 26 C4.77957031 25.06027344 4.77957031 25.06027344 4.5546875 24.1015625 C3.86616966 21.59282507 3.16286191 19.3299834 2 17 C-1.02884844 15.31963489 -1.02884844 15.31963489 -4 15 C-4 14.34 -4 13.68 -4 13 C-2.68 12.34 -1.36 11.68 0 11 C-0.33 10.01 -0.66 9.02 -1 8 C-1.125 4.375 -1.125 4.375 -1 1 C-0.67 0.67 -0.34 0.34 0 0 Z " fill="#541ED0" transform="translate(172,174)"/>
<path d="M0 0 C0.33 0 0.66 0 1 0 C1.02688151 1.64574566 1.04634123 3.29161413 1.0625 4.9375 C1.07410156 5.85402344 1.08570313 6.77054688 1.09765625 7.71484375 C1 10 1 10 0 11 C-0.20699563 12.49496842 -0.36679259 13.9966592 -0.5 15.5 C-0.88888889 19.88888889 -0.88888889 19.88888889 -2 21 C-2.28484531 23.48222341 -2.44806553 25.96468855 -2.62109375 28.45703125 C-3.00379712 31.02548378 -3.7125828 32.7639596 -5 35 C-5.66 35 -6.32 35 -7 35 C-4.80787615 23.30085774 -2.57817625 11.62132475 0 0 Z " fill="#5120CA" transform="translate(264,209)"/>
<path d="M0 0 C2.24926546 6.74779637 -0.88521657 15.35353779 -3 22 C-3.33 22 -3.66 22 -4 22 C-4.33 18.7 -4.66 15.4 -5 12 C-5.66 13.98 -6.32 15.96 -7 18 C-8.07310858 14.72814447 -7.89263102 12.57052408 -7.0625 9.25 C-6.77052734 8.05117187 -6.77052734 8.05117187 -6.47265625 6.828125 C-6.31667969 6.22484375 -6.16070312 5.6215625 -6 5 C-3.525 5.99 -3.525 5.99 -1 7 C-0.67 4.69 -0.34 2.38 0 0 Z " fill="#541FC0" transform="translate(249,196)"/>
<path d="M0 0 C0.66 0 1.32 0 2 0 C2 0.66 2 1.32 2 2 C2.66 2 3.32 2 4 2 C6.40929552 7.63433678 6.23079831 12.8689111 6.125 18.875 C6.11597656 19.84953125 6.10695313 20.8240625 6.09765625 21.828125 C6.07421623 24.21900728 6.04140442 26.60937261 6 29 C5.34 29 4.68 29 4 29 C3.67 29.99 3.34 30.98 3 32 C3.01571045 31.35039307 3.0314209 30.70078613 3.04760742 30.03149414 C3.11059337 27.04192069 3.14919021 24.05248751 3.1875 21.0625 C3.21263672 20.04091797 3.23777344 19.01933594 3.26367188 17.96679688 C3.32659512 11.40180496 2.5512675 6.0660915 0 0 Z " fill="#5320BF" transform="translate(267,46)"/>
<path d="M0 0 C0 3.9967284 -1.51424049 5.4409151 -3.875 8.625 C-4.59429687 9.60726563 -5.31359375 10.58953125 -6.0546875 11.6015625 C-8 14 -8 14 -10 15 C-10.33 13.35 -10.66 11.7 -11 10 C-10.34 10 -9.68 10 -9 10 C-9 7.36 -9 4.72 -9 2 C-6.69 2.66 -4.38 3.32 -2 4 C-1.34 2.68 -0.68 1.36 0 0 Z " fill="#5919DB" transform="translate(411,439)"/>
<path d="M0 0 C0.33 0 0.66 0 1 0 C1.29530838 6.49678438 0.17293889 12.6221448 -1 19 C-0.01 18.67 0.98 18.34 2 18 C1.88490339 19.41750563 1.75746342 20.83401169 1.625 22.25 C1.55539063 23.03890625 1.48578125 23.8278125 1.4140625 24.640625 C1 27 1 27 -1 31 C-1 27.7 -1 24.4 -1 21 C-1.99 22.98 -2.98 24.96 -4 27 C-5.17629657 23.52474084 -4.81182496 21.12508519 -4.00390625 17.578125 C-3.77509766 16.55332031 -3.54628906 15.52851563 -3.31054688 14.47265625 C-2.94026367 12.87744141 -2.94026367 12.87744141 -2.5625 11.25 C-2.31951172 10.17105469 -2.07652344 9.09210938 -1.82617188 7.98046875 C-1.22543705 5.31838893 -0.61644487 2.65847791 0 0 Z " fill="#5324BC" transform="translate(230,260)"/>
<path d="M0 0 C3.10727759 3.10727759 2.74648508 6.4989737 3.02734375 10.7578125 C2.97383594 17.10230993 1.38462605 22.61203279 -2.5625 27.625 C-5 30 -5 30 -7 30 C-7 29.34 -7 28.68 -7 28 C-6.34 28 -5.68 28 -5 28 C-5 26.68 -5 25.36 -5 24 C-4.01 24 -3.02 24 -2 24 C-2 23.01 -2 22.02 -2 21 C-1.34 21 -0.68 21 0 21 C0 14.07 0 7.14 0 0 Z " fill="#5122C3" transform="translate(281,395)"/>
<path d="M0 0 C1.659214 3.318428 0.57259528 6.39264976 0 10 C-0.33 10.33 -0.66 10.66 -1 11 C-1.23192865 12.51469448 -1.41215238 14.03754562 -1.5625 15.5625 C-1.68818359 16.80193359 -1.68818359 16.80193359 -1.81640625 18.06640625 C-1.87699219 18.70449219 -1.93757812 19.34257812 -2 20 C-2.66 20 -3.32 20 -4 20 C-4 21.98 -4 23.96 -4 26 C-4.66 26 -5.32 26 -6 26 C-6 23.36 -6 20.72 -6 18 C-5.34 18 -4.68 18 -4 18 C-4 14.37 -4 10.74 -4 7 C-3.01 7 -2.02 7 -1 7 C-1.309375 5.824375 -1.309375 5.824375 -1.625 4.625 C-1.74875 3.75875 -1.8725 2.8925 -2 2 C-1.34 1.34 -0.68 0.68 0 0 Z " fill="#5B19E7" transform="translate(221,317)"/>
<path d="M0 0 C2.11856679 0.94970236 3.75935857 1.74842033 5.375 3.4375 C7.62178893 5.59787397 10.19435073 6.69069701 13 8 C13 9.32 13 10.64 13 12 C8.4993598 12.36491677 8.4993598 12.36491677 6.375 10.8125 C3.81558883 7.43873073 1.83361468 3.80827665 0 0 Z " fill="#571ED5" transform="translate(252,449)"/>
<path d="M0 0 C2.20952948 4.41905895 2.7217672 7.8544167 3.25 12.6875 C3.34007324 13.49171387 3.43014648 14.29592773 3.52294922 15.12451172 C4.08077811 20.85008601 3.83610476 25.49168572 2 31 C1.67 31 1.34 31 1 31 C0.67 20.77 0.34 10.54 0 0 Z " fill="#5122C3" transform="translate(414,180)"/>
<path d="M0 0 C1.32 0.33 2.64 0.66 4 1 C4.5625 2.9375 4.5625 2.9375 5 5 C4.67 5.33 4.34 5.66 4 6 C4.06478516 8.0409505 4.06478516 8.0409505 4.375 10.375 C4.46523437 11.16648438 4.55546875 11.95796875 4.6484375 12.7734375 C4.96339554 15.16418493 4.96339554 15.16418493 6 18 C6.06740865 19.56118428 6.08514456 21.1250252 6.0625 22.6875 C6.05347656 23.49574219 6.04445312 24.30398437 6.03515625 25.13671875 C6.02355469 25.75160156 6.01195312 26.36648437 6 27 C4.49464584 24.2177337 3.57784444 21.6862896 2.9296875 18.59375 C2.75566406 17.76746094 2.58164063 16.94117188 2.40234375 16.08984375 C2.14130859 14.80787109 2.14130859 14.80787109 1.875 13.5 C1.60236328 12.21802734 1.60236328 12.21802734 1.32421875 10.91015625 C0.54031733 7.13210503 0 3.88870339 0 0 Z " fill="#541DCB" transform="translate(129,145)"/>
<path d="M0 0 C6.48408482 3.00189112 12.35882351 6.59572081 18 11 C18 11.33 18 11.66 18 12 C15.36 12.33 12.72 12.66 10 13 C10.66 11.68 11.32 10.36 12 9 C10.35 9.66 8.7 10.32 7 11 C7 9.35 7 7.7 7 6 C6.34 6 5.68 6 5 6 C5 5.34 5 4.68 5 4 C4.01 4 3.02 4 2 4 C2 3.34 2 2.68 2 2 C1.34 2 0.68 2 0 2 C0 1.34 0 0.68 0 0 Z " fill="#551ED2" transform="translate(356,301)"/>
<path d="M0 0 C0.66 0 1.32 0 2 0 C2 0.66 2 1.32 2 2 C3.051875 1.814375 4.10375 1.62875 5.1875 1.4375 C8.74140916 1.02967436 10.59371696 1.28705704 14 2 C17.33495585 2.09263766 20.66456775 2.05828911 24 2 C20.65598245 5.34401755 16.73100747 5.09645597 12.1875 5.25 C7.18878978 5.22002273 3.54569 4.02030667 -1 2 C-0.67 1.34 -0.34 0.68 0 0 Z " fill="#5020C6" transform="translate(247,425)"/>
<path d="M0 0 C0.33 0 0.66 0 1 0 C1.22262303 6.7281627 0.95021536 12.53991163 -1 19 C-1.66 19 -2.32 19 -3 19 C-3.31461385 11.90370975 -3.44572039 6.31715405 0 0 Z " fill="#5B19E6" transform="translate(244,207)"/>
<path d="M0 0 C-0.33 0.99 -0.66 1.98 -1 3 C-1.99 3 -2.98 3 -4 3 C-2.04783565 4.95216435 -0.46800047 5.84826645 2 7 C2 7.99 2 8.98 2 10 C-2.04420651 8.22054913 -5.46078487 5.60470327 -9 3 C-8.01 2.34 -7.02 1.68 -6 1 C-6.66 0.67 -7.32 0.34 -8 0 C-4.71023192 -1.09658936 -3.28696233 -0.79953138 0 0 Z " fill="#5818E1" transform="translate(295,297)"/>
<path d="M0 0 C0.33 0 0.66 0 1 0 C0.67 3.63 0.34 7.26 0 11 C-0.66 11 -1.32 11 -2 11 C-2 13.31 -2 15.62 -2 18 C-2.66 18 -3.32 18 -4 18 C-4.55697798 6.40660653 -4.55697798 6.40660653 -1 1 C-0.67 0.67 -0.34 0.34 0 0 Z " fill="#5C18E5" transform="translate(229,280)"/>
<path d="M0 0 C0 0.33 0 0.66 0 1 C-1.216875 1.020625 -2.43375 1.04125 -3.6875 1.0625 C-6.44683218 1.37617186 -7.6477709 1.65195415 -9.64453125 3.625 C-10.85528923 5.35565118 -11.93782395 7.17438492 -13 9 C-13.268125 8.360625 -13.53625 7.72125 -13.8125 7.0625 C-14.88667752 4.66868314 -14.88667752 4.66868314 -18 4 C-11.72912263 0.28392452 -7.24539726 -0.53449652 0 0 Z " fill="#581BE0" transform="translate(396,176)"/>
<path d="M0 0 C2.01565047 3.52078685 2.82990674 7.05088764 3.6875 11 C3.95949219 12.216875 4.23148438 13.43375 4.51171875 14.6875 C4.94757352 17.64433877 5.02405328 19.25086369 4 22 C1.9375 19.25 1.9375 19.25 0 16 C0.375 14.0625 0.375 14.0625 1 12 C0.67 10.865625 0.34 9.73125 0 8.5625 C-0.98432198 5.05585294 -1.03446368 3.41373014 0 0 Z " fill="#531ECF" transform="translate(178,201)"/>
<path d="M0 0 C8.38859824 -0.36008291 16.10665414 -0.13433406 24 3 C24.66 3.66 25.32 4.32 26 5 C24.783125 5.04125 23.56625 5.0825 22.3125 5.125 C21.28576172 5.15980469 21.28576172 5.15980469 20.23828125 5.1953125 C18 5 18 5 15.62109375 4.0234375 C11.66954405 2.48050751 7.74942382 2.54875238 3.546875 2.34375 C2.70640625 2.2303125 1.8659375 2.116875 1 2 C0.67 1.34 0.34 0.68 0 0 Z " fill="#5020C3" transform="translate(348,137)"/>
<path d="M0 0 C19.49629282 -0.87080216 19.49629282 -0.87080216 26 4 C27.2578125 6.64453125 27.2578125 6.64453125 28 9 C26.700625 8.071875 26.700625 8.071875 25.375 7.125 C19.69769745 3.5504021 14.16179713 2.59605719 7.625 1.875 C6.88894531 1.78863281 6.15289062 1.70226563 5.39453125 1.61328125 C3.59700818 1.40318115 1.79858658 1.20079233 0 1 C0 0.67 0 0.34 0 0 Z " fill="#5223BE" transform="translate(239,37)"/>
<path d="M0 0 C0.99 0 1.98 0 3 0 C4.5625 2.8125 4.5625 2.8125 6 6 C5.67 6.99 5.34 7.98 5 9 C4.34 8.67 3.68 8.34 3 8 C3 8.99 3 9.98 3 11 C2.34 11 1.68 11 1 11 C-0.20272819 8.59454362 -0.10071472 7.05003047 -0.0625 4.375 C-0.05347656 3.55773437 -0.04445313 2.74046875 -0.03515625 1.8984375 C-0.02355469 1.27195313 -0.01195312 0.64546875 0 0 Z " fill="#571DD4" transform="translate(408,171)"/>
<path d="M0 0 C0.66 0 1.32 0 2 0 C4.11248018 4.22496035 4.41787082 8.25470762 4.75390625 12.890625 C4.77703502 14.98383605 4.77703502 14.98383605 6 16 C6.07179964 17.51928038 6.08392007 19.04167482 6.0625 20.5625 C6.05347656 21.38878906 6.04445313 22.21507812 6.03515625 23.06640625 C6.02355469 23.70449219 6.01195313 24.34257812 6 25 C4.35625802 22.02560975 3.54008926 19.35248793 2.9296875 16.015625 C2.75566406 15.08105469 2.58164063 14.14648438 2.40234375 13.18359375 C2.14130859 11.73146484 2.14130859 11.73146484 1.875 10.25 C1.69324219 9.26644531 1.51148437 8.28289062 1.32421875 7.26953125 C0.87739815 4.84729328 0.43619812 2.42416945 0 0 Z " fill="#511EC4" transform="translate(121,110)"/>
<path d="M0 0 C0.66 0 1.32 0 2 0 C2 1.32 2 2.64 2 4 C-0.35424675 4.02726927 -2.70816962 4.04696719 -5.0625 4.0625 C-7.02896484 4.07990234 -7.02896484 4.07990234 -9.03515625 4.09765625 C-12.8163519 4.00452335 -16.27920707 3.61448726 -20 3 C-20 2.67 -20 2.34 -20 2 C-19.42967041 1.97494385 -18.85934082 1.9498877 -18.27172852 1.92407227 C-15.70173843 1.80843451 -13.13214473 1.68556376 -10.5625 1.5625 C-9.66466797 1.52318359 -8.76683594 1.48386719 -7.84179688 1.44335938 C-6.98779297 1.40146484 -6.13378906 1.35957031 -5.25390625 1.31640625 C-4.46314697 1.27974854 -3.6723877 1.24309082 -2.85766602 1.20532227 C-0.98598559 1.19436743 -0.98598559 1.19436743 0 0 Z " fill="#5A18EC" transform="translate(344,471)"/>
<path d="M0 0 C1.48280196 0.78483659 2.9611498 1.57809334 4.4375 2.375 C5.67306641 3.03628906 5.67306641 3.03628906 6.93359375 3.7109375 C9 5 9 5 10 7 C3.9453125 7.9765625 3.9453125 7.9765625 2 8 C0 6 0 6 -0.125 2.875 C-0.08375 1.92625 -0.0425 0.9775 0 0 Z " fill="#581ADF" transform="translate(306,270)"/>
<path d="M0 0 C0.66 0.33 1.32 0.66 2 1 C2.07654536 5.51617599 2.10228696 9.59085217 1 14 C-1.475 13.01 -1.475 13.01 -4 12 C-3.67 10.35 -3.34 8.7 -3 7 C-2.01 7 -1.02 7 0 7 C0 4.69 0 2.38 0 0 Z " fill="#561AE1" transform="translate(247,189)"/>
<path d="M0 0 C4.62 0 9.24 0 14 0 C13.67 0.66 13.34 1.32 13 2 C10.67284 2.37400786 8.33882138 2.70764733 6 3 C5.67 3.33 5.34 3.66 5 4 C3.00041636 4.04080783 0.99954746 4.04254356 -1 4 C-0.67 2.68 -0.34 1.36 0 0 Z " fill="#5C18E8" transform="translate(290,35)"/>
<path d="M0 0 C0.66 0 1.32 0 2 0 C1.48400816 7.8822202 -0.0921453 15.34458305 -2 23 C-2.33 23 -2.66 23 -3 23 C-2.88496731 20.4783624 -2.75825223 17.9581881 -2.625 15.4375 C-2.57859375 14.38079102 -2.57859375 14.38079102 -2.53125 13.30273438 C-2.27047442 8.58704259 -1.45341877 4.49614504 0 0 Z " fill="#5221C2" transform="translate(235,254)"/>
<path d="M0 0 C2.64 0 5.28 0 8 0 C8 1.65 8 3.3 8 5 C2.72 5 -2.56 5 -8 5 C-4.39338934 3.19669467 -1.91606575 2.53400897 2 2 C1.34 1.34 0.68 0.68 0 0 Z " fill="#4F1DCE" transform="translate(175,34)"/>
<path d="M0 0 C1.12894876 0.93274109 2.25300876 1.87140122 3.375 2.8125 C4.00148438 3.33457031 4.62796875 3.85664063 5.2734375 4.39453125 C7 6 7 6 9 9 C5.56404834 7.47291037 2.88087546 5.40072955 0 3 C2.475 5.97 2.475 5.97 5 9 C4.67 9.66 4.34 10.32 4 11 C2.84806377 9.90220176 1.70365063 8.79650554 0.5625 7.6875 C-0.07558594 7.07261719 -0.71367187 6.45773437 -1.37109375 5.82421875 C-3 4 -3 4 -4 1 C-2.68 1.33 -1.36 1.66 0 2 C0 1.34 0 0.68 0 0 Z " fill="#5628C7" transform="translate(252,446)"/>
<path d="M0 0 C0.33 0 0.66 0 1 0 C0.67 3.96 0.34 7.92 0 12 C2.51083114 10.74458443 2.87125446 9.49936512 4 7 C3.03644647 16.41002278 3.03644647 16.41002278 2 21 C1.67 21 1.34 21 1 21 C0.875 15.25 0.875 15.25 2 13 C0.68 13.33 -0.64 13.66 -2 14 C-1.03644647 4.58997722 -1.03644647 4.58997722 0 0 Z " fill="#5324B4" transform="translate(263,109)"/>
<path d="M0 0 C0.66 0.33 1.32 0.66 2 1 C1.67 1.99 1.34 2.98 1 4 C0.01 3.67 -0.98 3.34 -2 3 C-2 3.66 -2 4.32 -2 5 C-10.261959 9.59225513 -10.261959 9.59225513 -15 9 C-12.0889878 6.67933294 -9.16348341 4.98861978 -5.8125 3.375 C-2.68874848 2.00424981 -2.68874848 2.00424981 0 0 Z " fill="#501FCD" transform="translate(367,458)"/>
<path d="M0 0 C0.33 0 0.66 0 1 0 C1 2.97 1 5.94 1 9 C0.34 9 -0.32 9 -1 9 C-1 11.31 -1 13.62 -1 16 C-1.66 15.67 -2.32 15.34 -3 15 C-3.3152595 9.01006953 -2.68219822 5.36439644 0 0 Z " fill="#5A18E4" transform="translate(262,125)"/>
<path d="M0 0 C0.66 0 1.32 0 2 0 C3.31157516 2.62315032 2.89649988 4.23033436 2.5625 7.125 C2.46066406 8.03507812 2.35882813 8.94515625 2.25390625 9.8828125 C2.12822266 10.93082031 2.12822266 10.93082031 2 12 C1.01 12.33 0.02 12.66 -1 13 C-0.67 8.71 -0.34 4.42 0 0 Z " fill="#5B19E3" transform="translate(264,108)"/>
<path d="M0 0 C4.91935902 4.11619836 9.52647956 8.40410362 14 13 C13.67 13.66 13.34 14.32 13 15 C8 10 8 10 6 7.75 C3.66947084 5.71078699 2.04001379 5.33777931 -1 5 C-0.67 3.35 -0.34 1.7 0 0 Z " fill="#571FC7" transform="translate(392,327)"/>
<path d="M0 0 C2.25621163 1.08632412 4.37353544 2.23345965 6.5 3.5625 C8.7421556 4.85173947 10.48078813 5.53347928 13 6 C12.67 7.32 12.34 8.64 12 10 C6.85278792 7.76371125 3.15123346 5.85815158 0 1 C0 0.67 0 0.34 0 0 Z " fill="#521FCF" transform="translate(373,214)"/>
<path d="M0 0 C3.81311305 1.4980087 5.72483551 3.62648024 8 7 C8.75 9.8125 8.75 9.8125 9 12 C8.34 12 7.68 12 7 12 C6.34 10.35 5.68 8.7 5 7 C4.34 7 3.68 7 3 7 C0.70351351 4.4385343 0 3.52032428 0 0 Z " fill="#5B19E6" transform="translate(397,157)"/>
<path d="M0 0 C3.63 0.66 7.26 1.32 11 2 C11 3.32 11 4.64 11 6 C5.5 6.36666667 5.5 6.36666667 3.125 4.625 C2 3 2 3 2 1 C1.34 0.67 0.68 0.34 0 0 Z " fill="#5414E6" transform="translate(309,137)"/>
<path d="M0 0 C1.9375 0.8125 1.9375 0.8125 4 2 C5.09898702 5.29696105 4.87124444 6.40494903 4.0625 9.6875 C3.77052734 10.89986328 3.77052734 10.89986328 3.47265625 12.13671875 C3.31667969 12.75160156 3.16070312 13.36648438 3 14 C1.20724134 10.88089144 0.65709282 8.32317572 0.375 4.75 C0.30023438 3.85796875 0.22546875 2.9659375 0.1484375 2.046875 C0.09945312 1.37140625 0.05046875 0.6959375 0 0 Z " fill="#551FCE" transform="translate(171,338)"/>
<path d="M0 0 C0.33 0 0.66 0 1 0 C1.22262303 6.7281627 0.95021536 12.53991163 -1 19 C-1.66 19 -2.32 19 -3 19 C-2.37679879 12.56025419 -1.35991738 6.32427599 0 0 Z " fill="#5324C2" transform="translate(224,287)"/>
<path d="M0 0 C0.33 0.66 0.66 1.32 1 2 C-0.27984466 5.83953399 -2.81501296 7.65316744 -6 10 C-5.67 7.03 -5.34 4.06 -5 1 C-3.35 0.67 -1.7 0.34 0 0 Z " fill="#561DDA" transform="translate(279,170)"/>
<path d="M0 0 C3.91939465 3.80411834 7.49102731 7.81576108 11 12 C9.35 12 7.7 12 6 12 C5.773125 11.236875 5.54625 10.47375 5.3125 9.6875 C3.73268318 6.45263699 2.16717283 5.58358642 -1 4 C-0.67 2.68 -0.34 1.36 0 0 Z " fill="#5323C8" transform="translate(284,248)"/>
<path d="M0 0 C0.66 0 1.32 0 2 0 C3.17293889 6.3778552 4.29530838 12.50321562 4 19 C3.67 19 3.34 19 3 19 C2.49356447 16.77228658 1.9951038 14.54275924 1.5 12.3125 C1.2215625 11.07113281 0.943125 9.82976562 0.65625 8.55078125 C0.10645874 5.57601782 -0.13795705 3.00631398 0 0 Z " fill="#5320C3" transform="translate(140,195)"/>
<path d="M0 0 C1 2 1 2 0.25 4.8125 C-0.92594682 7.81116438 -2.14356845 10.3700553 -4 13 C-4.66 13 -5.32 13 -6 13 C-4.66666667 9 -3.33333333 5 -2 1 C-1.34 0.67 -0.68 0.34 0 0 Z " fill="#521FCD" transform="translate(388,429)"/>
<path d="M0 0 C3.80635497 3.20760251 7.54563567 6.40746109 11 10 C8.69 10 6.38 10 4 10 C1.125 3.375 1.125 3.375 0 0 Z " fill="#5621CA" transform="translate(295,260)"/>
<path d="M0 0 C5.8125 5.8125 5.8125 5.8125 6 9 C5.72686657 11.34114367 5.40197001 13.67750658 5 16 C4.67 16 4.34 16 4 16 C2.68 10.72 1.36 5.44 0 0 Z " fill="#5422C2" transform="translate(384,374)"/>
<path d="M0 0 C1.4540625 0.0309375 1.4540625 0.0309375 2.9375 0.0625 C2.9375 1.3825 2.9375 2.7025 2.9375 4.0625 C2.2775 4.0625 1.6175 4.0625 0.9375 4.0625 C0.6075 5.0525 0.2775 6.0425 -0.0625 7.0625 C-0.7225 7.0625 -1.3825 7.0625 -2.0625 7.0625 C-2.0625 5.4125 -2.0625 3.7625 -2.0625 2.0625 C-2.7225 1.7325 -3.3825 1.4025 -4.0625 1.0625 C-3.0625 0.0625 -3.0625 0.0625 0 0 Z " fill="#5E16EE" transform="translate(300.0625,141.9375)"/>
<path d="M0 0 C0.33 0 0.66 0 1 0 C1.53464435 2.20503036 2.05214435 4.41422172 2.5625 6.625 C2.85253906 7.85476562 3.14257812 9.08453125 3.44140625 10.3515625 C3.99059728 13.93858643 3.81517436 16.49097129 3 20 C2.67 20 2.34 20 2 20 C0.74158054 13.25846717 -0.26404456 6.86515862 0 0 Z " fill="#511FC2" transform="translate(161,123)"/>
<path d="M0 0 C2.31 0 4.62 0 7 0 C5.02 2.97 3.04 5.94 1 9 C0.17189174 5.68756695 -0.09278428 3.34023421 0 0 Z " fill="#5220CA" transform="translate(152,42)"/>
<path d="M0 0 C2.05137315 3.48216283 2.56818592 6.77275657 3.125 10.75 C3.29257813 11.92046875 3.46015625 13.0909375 3.6328125 14.296875 C3.75398437 15.18890625 3.87515625 16.0809375 4 17 C3.34 17 2.68 17 2 17 C0.30167391 11.16200408 -0.25287193 6.06892629 0 0 Z " fill="#4C21BD" transform="translate(185,233)"/>
<path d="M0 0 C1.68178661 2.52267991 2.90106742 4.81091823 4.125 7.5625 C4.47820312 8.34753906 4.83140625 9.13257813 5.1953125 9.94140625 C6 12 6 12 6 14 C5.34 14 4.68 14 4 14 C0.75099398 9.02495953 -0.49940808 6.11774896 0 0 Z " fill="#5420BD" transform="translate(275,229)"/>
<path d="M0 0 C5.34844008 0.53484401 9.35796103 2.46690767 14 5 C10.90279155 5.87840996 9.09354597 5.99435406 6 5 C6 4.34 6 3.68 6 3 C5.195625 2.87625 4.39125 2.7525 3.5625 2.625 C2.716875 2.41875 1.87125 2.2125 1 2 C0.67 1.34 0.34 0.68 0 0 Z " fill="#5322C3" transform="translate(374,142)"/>
<path d="M0 0 C1.79093191 -0.08086147 3.58289628 -0.13912702 5.375 -0.1875 C6.87160156 -0.23970703 6.87160156 -0.23970703 8.3984375 -0.29296875 C9.25695312 -0.19628906 10.11546875 -0.09960938 11 0 C11.66 0.99 12.32 1.98 13 3 C8.71 2.67 4.42 2.34 0 2 C0 1.34 0 0.68 0 0 Z " fill="#5424C2" transform="translate(352,141)"/>
<path d="M0 0 C1.09054688 0.02320313 2.18109375 0.04640625 3.3046875 0.0703125 C4.40039062 0.08835938 5.49609375 0.10640625 6.625 0.125 C7.46804687 0.14820313 8.31109375 0.17140625 9.1796875 0.1953125 C8.8496875 0.8553125 8.5196875 1.5153125 8.1796875 2.1953125 C3.51679428 3.05017626 -0.19659004 3.49573444 -4.8203125 2.1953125 C-2.8203125 0.1953125 -2.8203125 0.1953125 0 0 Z " fill="#5C17E7" transform="translate(168.8203125,34.8046875)"/>
<path d="M0 0 C4.95 0.33 9.9 0.66 15 1 C15 1.33 15 1.66 15 2 C13.06325815 2.19517554 11.12555991 2.38087873 9.1875 2.5625 C8.10855469 2.66691406 7.02960938 2.77132813 5.91796875 2.87890625 C3 3 3 3 0 2 C0 1.34 0 0.68 0 0 Z " fill="#5A28C9" transform="translate(295,470)"/>
<path d="M0 0 C0.33 0.66 0.66 1.32 1 2 C0.328125 3.91015625 0.328125 3.91015625 -0.75 6.0625 C-1.09546875 6.77535156 -1.4409375 7.48820312 -1.796875 8.22265625 C-3 10 -3 10 -6 11 C-4.74194623 6.49197399 -3.09592835 3.5087188 0 0 Z " fill="#5724CF" transform="translate(243,386)"/>
<path d="M0 0 C3.12290635 0.48578543 5.99580359 0.9986012 9 2 C9 2.66 9 3.32 9 4 C10.32 4.33 11.64 4.66 13 5 C8.13761177 5.34731345 5.17281491 4.52309739 1 2 C0.67 1.34 0.34 0.68 0 0 Z " fill="#5A1AE5" transform="translate(371,143)"/>
<path d="M0 0 C2.95562064 0.20151959 5.07037079 0.96252665 7.75 2.1875 C7.75 2.8475 7.75 3.5075 7.75 4.1875 C6.491875 4.06375 5.23375 3.94 3.9375 3.8125 C2.87595703 3.70808594 2.87595703 3.70808594 1.79296875 3.6015625 C-0.25 3.1875 -0.25 3.1875 -3.25 1.1875 C-2.25 0.1875 -2.25 0.1875 0 0 Z " fill="#5919E6" transform="translate(280.25,466.8125)"/>
<path d="M0 0 C1.37562854 1.28965176 2.70766393 2.62689293 4 4 C4 4.66 4 5.32 4 6 C2.68 6 1.36 6 0 6 C-0.99 6.33 -1.98 6.66 -3 7 C-2.38722388 4.03824877 -1.74627478 2.61941217 0 0 Z " fill="#591CD6" transform="translate(277,389)"/>
<path d="M0 0 C0.33 0 0.66 0 1 0 C1.20413361 5.73842251 1.27141454 10.60539047 -1 16 C-1.66 16 -2.32 16 -3 16 C-2.01 10.72 -1.02 5.44 0 0 Z " fill="#5425BB" transform="translate(264,209)"/>
<path d="M0 0 C2.97069541 2.54631035 4.4775751 5.42230149 6 9 C5.67 9.66 5.34 10.32 5 11 C3.5 9.6875 3.5 9.6875 2 8 C2 7.01 2 6.02 2 5 C1.01 4.67 0.02 4.34 -1 4 C-0.67 2.68 -0.34 1.36 0 0 Z " fill="#5421C5" transform="translate(409,346)"/>
<path d="M0 0 C2.64 0.33 5.28 0.66 8 1 C8.66 2.98 9.32 4.96 10 7 C6.42032008 5.34784004 3.22017048 3.26875648 0 1 C0 0.67 0 0.34 0 0 Z " fill="#541FCB" transform="translate(348,338)"/>
<path d="M0 0 C0.33 1.32 0.66 2.64 1 4 C-1.31 4 -3.62 4 -6 4 C-6.33 3.01 -6.66 2.02 -7 1 C-4.50935112 0.31292445 -2.62113708 0 0 0 Z " fill="#541ADC" transform="translate(407,179)"/>
<path d="M0 0 C3.65316671 1.24976756 4.78065836 1.67098753 7 5 C5.35 4.67 3.7 4.34 2 4 C2.66 5.32 3.32 6.64 4 8 C2.68 7.34 1.36 6.68 0 6 C0 4.02 0 2.04 0 0 Z " fill="#5422BF" transform="translate(389,149)"/>
<path d="M0 0 C1.73684533 3.47369066 2.30084112 5.07619937 2.625 8.75 C2.69976562 9.54921875 2.77453125 10.3484375 2.8515625 11.171875 C2.90054688 11.77515625 2.94953125 12.3784375 3 13 C2.67 12.34 2.34 11.68 2 11 C1.34 11 0.68 11 0 11 C0 7.37 0 3.74 0 0 Z " fill="#5021C3" transform="translate(195,279)"/>
<path d="M0 0 C0 0.33 0 0.66 0 1 C-1.2375 1.12375 -2.475 1.2475 -3.75 1.375 C-6.8762197 1.75746305 -9.28879237 2.30549523 -12 4 C-12.99 3.34 -13.98 2.68 -15 2 C-10.13948404 -0.59227518 -5.34728867 -0.18689553 0 0 Z " fill="#5520C8" transform="translate(396,176)"/>
<path d="M0 0 C0.33 0 0.66 0 1 0 C0.98839844 0.74765625 0.97679687 1.4953125 0.96484375 2.265625 C0.95582031 3.25046875 0.94679687 4.2353125 0.9375 5.25 C0.92589844 6.22453125 0.91429687 7.1990625 0.90234375 8.203125 C0.98804423 10.65758678 1.29293934 12.66168914 2 15 C1.01 14.34 0.02 13.68 -1 13 C-1.2982655 8.45145106 -1.10962199 4.43848796 0 0 Z " fill="#5329B5" transform="translate(254,255)"/>
<path d="M0 0 C-1.32 0.33 -2.64 0.66 -4 1 C-4 1.66 -4 2.32 -4 3 C-6.64 3 -9.28 3 -12 3 C-7.97869817 0.31913211 -4.73968522 -1.57989507 0 0 Z " fill="#5323BC" transform="translate(295,142)"/>
<path d="M0 0 C0.33 0.66 0.66 1.32 1 2 C3.52733235 2.65555119 3.52733235 2.65555119 6 3 C5.34 4.32 4.68 5.64 4 7 C2.35 5.02 0.7 3.04 -1 1 C-0.67 0.67 -0.34 0.34 0 0 Z " fill="#521CC8" transform="translate(370,353)"/>
<path d="M0 0 C2.31 0 4.62 0 7 0 C1 4 1 4 -3 4 C-3 3.34 -3 2.68 -3 2 C-2.01 2 -1.02 2 0 2 C0 1.34 0 0.68 0 0 Z " fill="#5320BF" transform="translate(379,465)"/>
<path d="M0 0 C0 4.01474237 -1.66781767 5.81975137 -4 9 C-4.33 9 -4.66 9 -5 9 C-5 7.02 -5 5.04 -5 3 C-4.01 3.33 -3.02 3.66 -2 4 C-1.34 2.68 -0.68 1.36 0 0 Z " fill="#5324C6" transform="translate(411,439)"/>
<path d="M0 0 C3.36591866 1.44253657 5.51047079 3.33264727 8 6 C7.01 6 6.02 6 5 6 C5 5.34 5 4.68 5 4 C3.68 4.33 2.36 4.66 1 5 C0.67 3.35 0.34 1.7 0 0 Z " fill="#551EC6" transform="translate(374,313)"/>
<path d="M0 0 C-0.33 1.65 -0.66 3.3 -1 5 C-3.46800047 3.84826645 -5.04783565 2.95216435 -7 1 C-4.50935112 0.31292445 -2.62113708 0 0 0 Z " fill="#541ED4" transform="translate(304,306)"/>
<path d="M0 0 C2.31 0.66 4.62 1.32 7 2 C7.33 3.32 7.66 4.64 8 6 C4.63408134 4.55746343 2.48952921 2.66735273 0 0 Z " fill="#501DC9" transform="translate(289,301)"/>
<path d="M0 0 C0.66 0 1.32 0 2 0 C2.33 2.31 2.66 4.62 3 7 C2.34 7 1.68 7 1 7 C1 6.01 1 5.02 1 4 C0.34 3.67 -0.32 3.34 -1 3 C-0.67 2.01 -0.34 1.02 0 0 Z " fill="#5B1EE9" transform="translate(244,434)"/>
<path d="M0 0 C1.65 0.33 3.3 0.66 5 1 C2.37801226 3.15377564 0.35595828 4.40072174 -3 5 C-2.01 3.35 -1.02 1.7 0 0 Z " fill="#5222C9" transform="translate(301,146)"/>
<path d="M0 0 C2.31 0 4.62 0 7 0 C7 0.99 7 1.98 7 3 C4.69 2.67 2.38 2.34 0 2 C0 1.34 0 0.68 0 0 Z " fill="#5E19E1" transform="translate(88,35)"/>
<path d="M0 0 C2.46800047 1.15173355 4.04783565 2.04783565 6 4 C5.67 4.99 5.34 5.98 5 7 C3.29115995 5.37660195 1.62553283 3.70680947 0 2 C0 1.34 0 0.68 0 0 Z " fill="#591CEB" transform="translate(252,449)"/>
<path d="M0 0 C1.65 0 3.3 0 5 0 C5.66 1.98 6.32 3.96 7 6 C3.63279613 4.60667426 2.0140476 3.0210714 0 0 Z " fill="#4B20C6" transform="translate(362,348)"/>
<path d="M0 0 C3.96 1.98 3.96 1.98 8 4 C6.02 4.99 6.02 4.99 4 6 C2.62437146 4.71034824 1.29233607 3.37310707 0 2 C0 1.34 0 0.68 0 0 Z " fill="#551FCF" transform="translate(348,296)"/>
<path d="M0 0 C4.875 1.75 4.875 1.75 6 4 C4.02 4.33 2.04 4.66 0 5 C0 3.35 0 1.7 0 0 Z " fill="#5720D5" transform="translate(310,273)"/>
<path d="M0 0 C1.32 0.33 2.64 0.66 4 1 C1.36 2.65 -1.28 4.3 -4 6 C-3 2 -3 2 0 0 Z " fill="#5124C0" transform="translate(294,151)"/>
<path d="M0 0 C0.66 0 1.32 0 2 0 C1.34 3.3 0.68 6.6 0 10 C-0.33 10 -0.66 10 -1 10 C-1.125 2.25 -1.125 2.25 0 0 Z " fill="#5423C1" transform="translate(279,57)"/>
<path d="" fill="#000000" transform="translate(0,0)"/>
<path d="" fill="#000000" transform="translate(0,0)"/>
<path d="" fill="#000000" transform="translate(0,0)"/>
<path d="" fill="#000000" transform="translate(0,0)"/>
<path d="" fill="#000000" transform="translate(0,0)"/>
<path d="" fill="#000000" transform="translate(0,0)"/>
<path d="" fill="#000000" transform="translate(0,0)"/>
<path d="" fill="#000000" transform="translate(0,0)"/>
<path d="" fill="#000000" transform="translate(0,0)"/>
<path d="" fill="#000000" transform="translate(0,0)"/>
<path d="" fill="#000000" transform="translate(0,0)"/>
<path d="" fill="#000000" transform="translate(0,0)"/>
<path d="" fill="#000000" transform="translate(0,0)"/>
<path d="" fill="#000000" transform="translate(0,0)"/>
<path d="" fill="#000000" transform="translate(0,0)"/>
<path d="" fill="#000000" transform="translate(0,0)"/>
<path d="" fill="#000000" transform="translate(0,0)"/>
<path d="" fill="#000000" transform="translate(0,0)"/>
<path d="" fill="#000000" transform="translate(0,0)"/>
<path d="" fill="#000000" transform="translate(0,0)"/>
<path d="" fill="#000000" transform="translate(0,0)"/>
<path d="" fill="#000000" transform="translate(0,0)"/>
<path d="" fill="#000000" transform="translate(0,0)"/>
<path d="" fill="#000000" transform="translate(0,0)"/>
<path d="" fill="#000000" transform="translate(0,0)"/>
<path d="" fill="#000000" transform="translate(0,0)"/>
<path d="" fill="#000000" transform="translate(0,0)"/>
<path d="" fill="#000000" transform="translate(0,0)"/>
<path d="" fill="#000000" transform="translate(0,0)"/>
<path d="" fill="#000000" transform="translate(0,0)"/>
<path d="" fill="#000000" transform="translate(0,0)"/>
<path d="" fill="#000000" transform="translate(0,0)"/>
<path d="" fill="#000000" transform="translate(0,0)"/>
<path d="" fill="#000000" transform="translate(0,0)"/>
<path d="" fill="#000000" transform="translate(0,0)"/>
<path d="" fill="#000000" transform="translate(0,0)"/>
<path d="" fill="#000000" transform="translate(0,0)"/>
<path d="" fill="#000000" transform="translate(0,0)"/>
<path d="" fill="#000000" transform="translate(0,0)"/>
<path d="" fill="#000000" transform="translate(0,0)"/>
<path d="" fill="#000000" transform="translate(0,0)"/>
<path d="" fill="#000000" transform="translate(0,0)"/>
<path d="" fill="#000000" transform="translate(0,0)"/>
<path d="" fill="#000000" transform="translate(0,0)"/>
<path d="" fill="#000000" transform="translate(0,0)"/>
<path d="" fill="#000000" transform="translate(0,0)"/>
<path d="" fill="#000000" transform="translate(0,0)"/>
<path d="" fill="#000000" transform="translate(0,0)"/>
<path d="" fill="#000000" transform="translate(0,0)"/>
<path d="" fill="#000000" transform="translate(0,0)"/>
<path d="" fill="#000000" transform="translate(0,0)"/>
<path d="" fill="#000000" transform="translate(0,0)"/>
<path d="" fill="#000000" transform="translate(0,0)"/>
<path d="" fill="#000000" transform="translate(0,0)"/>
<path d="" fill="#000000" transform="translate(0,0)"/>
<path d="" fill="#000000" transform="translate(0,0)"/>
<path d="" fill="#000000" transform="translate(0,0)"/>
<path d="" fill="#000000" transform="translate(0,0)"/>
<path d="" fill="#000000" transform="translate(0,0)"/>
<path d="" fill="#000000" transform="translate(0,0)"/>
<path d="" fill="#000000" transform="translate(0,0)"/>
<path d="" fill="#000000" transform="translate(0,0)"/>
<path d="" fill="#000000" transform="translate(0,0)"/>
<path d="" fill="#000000" transform="translate(0,0)"/>
<path d="" fill="#000000" transform="translate(0,0)"/>
<path d="" fill="#000000" transform="translate(0,0)"/>
<path d="" fill="#000000" transform="translate(0,0)"/>
<path d="" fill="#000000" transform="translate(0,0)"/>
<path d="" fill="#000000" transform="translate(0,0)"/>
<path d="" fill="#000000" transform="translate(0,0)"/>
<path d="" fill="#000000" transform="translate(0,0)"/>
<path d="" fill="#000000" transform="translate(0,0)"/>
<path d="" fill="#000000" transform="translate(0,0)"/>
<path d="" fill="#000000" transform="translate(0,0)"/>
<path d="" fill="#000000" transform="translate(0,0)"/>
<path d="" fill="#000000" transform="translate(0,0)"/>
<path d="" fill="#000000" transform="translate(0,0)"/>
<path d="" fill="#000000" transform="translate(0,0)"/>
<path d="" fill="#000000" transform="translate(0,0)"/>
<path d="" fill="#000000" transform="translate(0,0)"/>
<path d="" fill="#000000" transform="translate(0,0)"/>
</svg>
