<svg xmlns="http://www.w3.org/2000/svg" xmlns:xlink="http://www.w3.org/1999/xlink" viewBox="0,0,256,256" width="50px" height="50px" fill-rule="nonzero"><g fill="#ffffff" fill-rule="nonzero" stroke="none" stroke-width="1" stroke-linecap="butt" stroke-linejoin="miter" stroke-miterlimit="10" stroke-dasharray="" stroke-dashoffset="0" font-family="none" font-weight="none" font-size="none" text-anchor="none" style="mix-blend-mode: normal"><g transform="scale(5.12,5.12)"><path d="M15,12c6.47178,-2.56646 13.81661,0.42123 16.65925,6.77655c2.84263,6.35532 0.17384,13.82194 -6.05323,16.93548c-6.22708,3.11354 -13.80165,0.7686 -17.18032,-5.3187c-3.37867,-6.0873 -1.36192,-13.75578 4.57431,-17.39333c0,0 NaN,NaN NaN,NaNcNaN,NaN NaN,NaN NaN,NaNzM35.5,13c-3.59,0 -6.5,5.373 -6.5,12c0,1.243 0.102,2.441 0.292,3.568c0.253,1.503 0.662,2.879 1.192,4.065c0.265,0.593 0.56,1.138 0.881,1.627c0.642,0.978 1.388,1.733 2.202,2.201c0.611,0.35 1.26,0.539 1.933,0.539c0.673,0 1.322,-0.189 1.933,-0.539c0.814,-0.468 1.56,-1.223 2.202,-2.201c0.321,-0.489 0.616,-1.034 0.881,-1.627c0.53,-1.185 0.939,-2.562 1.192,-4.065c0.19,-1.127 0.292,-2.325 0.292,-3.568c0,-6.627 -2.91,-12 -6.5,-12zM45.5,14c-0.259,0 -0.509,0.173 -0.743,0.495c-0.157,0.214 -0.307,0.494 -0.448,0.833c-0.071,0.169 -0.14,0.353 -0.206,0.551c-0.133,0.395 -0.257,0.846 -0.37,1.343c-0.226,0.995 -0.409,2.181 -0.536,3.497c-0.063,0.658 -0.112,1.349 -0.146,2.065c-0.034,0.715 -0.051,1.457 -0.051,2.216c0,0.759 0.017,1.501 0.051,2.217c0.033,0.716 0.082,1.407 0.146,2.065c0.127,1.316 0.31,2.501 0.536,3.497c0.113,0.498 0.237,0.948 0.37,1.343c0.066,0.198 0.135,0.382 0.206,0.551c0.142,0.339 0.292,0.619 0.448,0.833c0.234,0.321 0.484,0.494 0.743,0.494c1.381,0 2.5,-4.925 2.5,-11c0,-6.075 -1.119,-11 -2.5,-11z"></path></g></g></svg>